# xmcd
#
# Track frame offsets:
#	150
#	12190
#	27873
#	47133
#	62778
#	81687
#	104250
#	118774
#	132310
#	151532
#
# Disc length: 2183 seconds
#
# Revision: 1
# Processed by: cddbd v1.5.2PL0 Copyright (c) Steve Scherf et al.
# Submitted via: EasyCDDAExtractor 5.0.7
#
DISCID=7e08850a
DTITLE=Various Artist - Think A Head
DYEAR=1995
DGENRE=AlternRock
TTITLE0=Noel Miller - Leave a Message at the Tone
TTITLE1=I Confess
TTITLE2=I'm Still Dreaming
TTITLE3=Throw your Love Away
TTITLE4=The One you can't Ignore
TTITLE5=Cleared Away
TTITLE6=Talk Dirty Talk
TTITLE7=It'll Be Alright
TTITLE8=Lifetime
TTITLE9=Where I need you to be
EXTD=
EXTT0=
EXTT1=
EXTT2=
EXTT3=
EXTT4=
EXTT5=
EXTT6=
EXTT7=
EXTT8=
EXTT9=
PLAYORDER=
